<svg xmlns="http://www.w3.org/2000/svg" width="500" height="500"><g style="fill: rgb(0, 0 ,0);"><rect x="0" y="20" width="20" height="76" class="col c0-0"></rect><rect x="0" y="0" width="20" height="20" class="corner c0-0"></rect><rect x="116" y="0" width="76" height="20" class="row c0-1"></rect><rect x="96" y="20" width="20" height="76" class="col c0-1" style="opacity: 0"></rect><rect x="96" y="0" width="20" height="20" class="corner c0-1"></rect><rect x="212" y="0" width="76" height="20" class="row c0-2"></rect><rect x="192" y="20" width="20" height="76" class="col c0-2" style="opacity: 0"></rect><rect x="192" y="0" width="20" height="20" class="corner c0-2"></rect><rect x="308" y="0" width="76" height="20" class="row c0-3"></rect><rect x="288" y="20" width="20" height="76" class="col c0-3"></rect><rect x="288" y="0" width="20" height="20" class="corner c0-3"></rect><rect x="404" y="0" width="76" height="20" class="row c0-4"></rect><rect x="384" y="20" width="20" height="76" class="col c0-4"></rect><rect x="384" y="0" width="20" height="20" class="corner c0-4"></rect><rect x="500" y="0" width="76" height="20" class="row hide c0-5"></rect><rect x="480" y="20" width="20" height="76" class="col c0-5"></rect><rect x="480" y="0" width="20" height="20" class="corner c0-5"></rect><rect x="20" y="96" width="76" height="20" class="row c1-0"></rect><rect x="0" y="116" width="20" height="76" class="col c1-0"></rect><rect x="0" y="96" width="20" height="20" class="corner c1-0"></rect><rect x="116" y="96" width="76" height="20" class="row c1-1"></rect><rect x="96" y="116" width="20" height="76" class="col c1-1" style="opacity: 0"></rect><rect x="96" y="96" width="20" height="20" class="corner c1-1"></rect><rect x="212" y="96" width="76" height="20" class="row c1-2" style="opacity: 0"></rect><rect x="192" y="116" width="20" height="76" class="col c1-2" style="opacity: 0"></rect><rect x="192" y="96" width="20" height="20" class="corner c1-2"></rect><rect x="308" y="96" width="76" height="20" class="row c1-3" style="opacity: 0"></rect><rect x="288" y="116" width="20" height="76" class="col c1-3"></rect><rect x="288" y="96" width="20" height="20" class="corner c1-3"></rect><rect x="404" y="96" width="76" height="20" class="row c1-4" style="opacity: 0"></rect><rect x="384" y="116" width="20" height="76" class="col c1-4"></rect><rect x="384" y="96" width="20" height="20" class="corner c1-4"></rect><rect x="500" y="96" width="76" height="20" class="row hide c1-5"></rect><rect x="480" y="116" width="20" height="76" class="col c1-5"></rect><rect x="480" y="96" width="20" height="20" class="corner c1-5"></rect><rect x="20" y="192" width="76" height="20" class="row c2-0" style="opacity: 0"></rect><rect x="0" y="212" width="20" height="76" class="col c2-0"></rect><rect x="0" y="192" width="20" height="20" class="corner c2-0"></rect><rect x="116" y="192" width="76" height="20" class="row c2-1" style="opacity: 0"></rect><rect x="96" y="212" width="20" height="76" class="col c2-1"></rect><rect x="96" y="192" width="20" height="20" class="corner c2-1"></rect><rect x="212" y="192" width="76" height="20" class="row c2-2"></rect><rect x="192" y="212" width="20" height="76" class="col c2-2"></rect><rect x="192" y="192" width="20" height="20" class="corner c2-2"></rect><rect x="308" y="192" width="76" height="20" class="row c2-3" style="opacity: 0"></rect><rect x="288" y="212" width="20" height="76" class="col c2-3" style="opacity: 0"></rect><rect x="288" y="192" width="20" height="20" class="corner c2-3"></rect><rect x="404" y="192" width="76" height="20" class="row c2-4" style="opacity: 0"></rect><rect x="384" y="212" width="20" height="76" class="col c2-4"></rect><rect x="384" y="192" width="20" height="20" class="corner c2-4"></rect><rect x="500" y="192" width="76" height="20" class="row hide c2-5"></rect><rect x="480" y="212" width="20" height="76" class="col c2-5"></rect><rect x="480" y="192" width="20" height="20" class="corner c2-5"></rect><rect x="20" y="288" width="76" height="20" class="row c3-0" style="opacity: 0"></rect><rect x="0" y="308" width="20" height="76" class="col c3-0"></rect><rect x="0" y="288" width="20" height="20" class="corner c3-0"></rect><rect x="116" y="288" width="76" height="20" class="row c3-1"></rect><rect x="96" y="308" width="20" height="76" class="col c3-1" style="opacity: 0"></rect><rect x="96" y="288" width="20" height="20" class="corner c3-1"></rect><rect x="212" y="288" width="76" height="20" class="row c3-2" style="opacity: 0"></rect><rect x="192" y="308" width="20" height="76" class="col c3-2" style="opacity: 0"></rect><rect x="192" y="288" width="20" height="20" class="corner c3-2"></rect><rect x="308" y="288" width="76" height="20" class="row c3-3"></rect><rect x="288" y="308" width="20" height="76" class="col c3-3"></rect><rect x="288" y="288" width="20" height="20" class="corner c3-3"></rect><rect x="404" y="288" width="76" height="20" class="row c3-4" style="opacity: 0"></rect><rect x="384" y="308" width="20" height="76" class="col c3-4" style="opacity: 0"></rect><rect x="384" y="288" width="20" height="20" class="corner c3-4"></rect><rect x="500" y="288" width="76" height="20" class="row hide c3-5"></rect><rect x="480" y="308" width="20" height="76" class="col c3-5"></rect><rect x="480" y="288" width="20" height="20" class="corner c3-5"></rect><rect x="20" y="384" width="76" height="20" class="row c4-0" style="opacity: 0"></rect><rect x="0" y="404" width="20" height="76" class="col c4-0"></rect><rect x="0" y="384" width="20" height="20" class="corner c4-0"></rect><rect x="116" y="384" width="76" height="20" class="row c4-1"></rect><rect x="96" y="404" width="20" height="76" class="col c4-1" style="opacity: 0"></rect><rect x="96" y="384" width="20" height="20" class="corner c4-1"></rect><rect x="212" y="384" width="76" height="20" class="row c4-2"></rect><rect x="192" y="404" width="20" height="76" class="col c4-2" style="opacity: 0"></rect><rect x="192" y="384" width="20" height="20" class="corner c4-2"></rect><rect x="308" y="384" width="76" height="20" class="row c4-3"></rect><rect x="288" y="404" width="20" height="76" class="col c4-3" style="opacity: 0"></rect><rect x="288" y="384" width="20" height="20" class="corner c4-3"></rect><rect x="404" y="384" width="76" height="20" class="row c4-4" style="opacity: 0"></rect><rect x="384" y="404" width="20" height="76" class="col c4-4" style="opacity: 0"></rect><rect x="384" y="384" width="20" height="20" class="corner c4-4"></rect><rect x="500" y="384" width="76" height="20" class="row hide c4-5"></rect><rect x="480" y="404" width="20" height="76" class="col c4-5"></rect><rect x="480" y="384" width="20" height="20" class="corner c4-5"></rect><rect x="20" y="480" width="76" height="20" class="row c5-0"></rect><rect x="0" y="500" width="20" height="76" class="col hide c5-0"></rect><rect x="0" y="480" width="20" height="20" class="corner c5-0"></rect><rect x="116" y="480" width="76" height="20" class="row c5-1"></rect><rect x="96" y="500" width="20" height="76" class="col hide c5-1"></rect><rect x="96" y="480" width="20" height="20" class="corner c5-1"></rect><rect x="212" y="480" width="76" height="20" class="row c5-2"></rect><rect x="192" y="500" width="20" height="76" class="col hide c5-2"></rect><rect x="192" y="480" width="20" height="20" class="corner c5-2"></rect><rect x="308" y="480" width="76" height="20" class="row c5-3"></rect><rect x="288" y="500" width="20" height="76" class="col hide c5-3"></rect><rect x="288" y="480" width="20" height="20" class="corner c5-3"></rect><rect x="384" y="500" width="20" height="76" class="col hide c5-4"></rect><rect x="384" y="480" width="20" height="20" class="corner c5-4"></rect><rect x="500" y="480" width="76" height="20" class="row hide c5-5"></rect><rect x="480" y="500" width="20" height="76" class="col hide c5-5"></rect><rect x="480" y="480" width="20" height="20" class="corner c5-5"></rect></g></svg>